<?xml version="1.0" encoding="utf-8"?><svg viewBox="0 0 24 24" xmlns="http://www.w3.org/2000/svg" xmlns:xlink="http://www.w3.org/1999/xlink"><style>:root>svg{display:none}:root>svg:target{display:block}</style><svg viewBox="0 0 16 17" id="bag" xmlns="http://www.w3.org/2000/svg"><path d="M1.255 7.566a2.5 2.5 0 012.492-2.697h8.506a2.5 2.5 0 012.492 2.697l-.525 6.631a2.5 2.5 0 01-2.492 2.303H4.272a2.5 2.5 0 01-2.492-2.303l-.525-6.631z"/><path d="M4 9.5S3.783 1 8 1s4 8.5 4 8.5"/></svg><svg viewBox="0 0 18 18" id="clock" xmlns="http://www.w3.org/2000/svg"><circle cx="9" cy="9" r="7"/><path d="M8.555 4.5v5.206L12.5 12"/></svg><svg viewBox="0 0 16 16" id="closes" xmlns="http://www.w3.org/2000/svg"><circle cx="8" cy="8" r="7"/><path d="M4 6c.25 0 2.758-1.5 2.758-1.5H9.25S11.75 6 12 6"/><path d="M4.016 5.393v1.785l1.745.298v4.463m6.223-6.546v1.785l-1.745.298.009 4.463m-4.737-.501h4.986M6.509 4.5s.498 1.785 1.495 1.785C9.001 6.285 9.5 4.5 9.5 4.5"/></svg><svg viewBox="0 0 10 10" id="cross-form" xmlns="http://www.w3.org/2000/svg"><path d="M.7 9.066L9.05.883m.202 8.183L.902.883"/></svg><svg viewBox="0 0 16 16" id="favorite" xmlns="http://www.w3.org/2000/svg"><path d="M7.9 3.095C6.7-2.521-2.591 1.904 1.76 7.602 6.112 13.3 8.4 15.49 8.4 15.49"/><path d="M7.894 3.095c1.2-5.616 10.836-1.191 6.485 4.507C10.027 13.3 7.7 15.5 7.7 15.5"/><path d="M7.391 2.708h1.013l-.02.533H7.39v-.533z"/></svg><svg viewBox="0 0 16 16" id="full-screen" xmlns="http://www.w3.org/2000/svg"><rect x=".5" y="2.5" width="13" height="13" rx="1.5"/><path d="M2.338 2.631V2.5a2 2 0 012-2H13.5a2 2 0 012 2v9.438a1.61 1.61 0 01-2 1.562"/></svg><svg viewBox="0 0 24 24" id="menu-cross" xmlns="http://www.w3.org/2000/svg"><path d="M5.01 18.282L18.646 4.646m.708 13.636L5.718 4.646"/></svg><svg viewBox="0 0 14 10" id="pay" xmlns="http://www.w3.org/2000/svg"><rect x=".5" y=".5" width="13" height="9" rx=".5"/><path d="M1 3h12v2H1z"/></svg><svg viewBox="0 0 16 16" id="person" xmlns="http://www.w3.org/2000/svg"><circle cx="8.459" cy="4.189" r="3.689"/><path d="M.5 15.338h15m-15 .502c0-3.405 4.347-5.927 7.714-5.838 3.219.085 7.286 2.433 7.286 5.838"/></svg><svg viewBox="0 0 10 10" id="star" xmlns="http://www.w3.org/2000/svg"><path d="M5 7.635L8.09 9.5l-.82-3.515L10 3.62l-3.595-.305L5 0 3.595 3.315 0 3.62l2.73 2.365L1.91 9.5 5 7.635z"/></svg></svg>